<svg xmlns="http://www.w3.org/2000/svg" fill="#000000" width="800" height="800" viewBox="0 0 48.625 48.625" xmlns:v="https://vecta.io/nano"><style><![CDATA[.B{fill:#4b8ebe}.C{fill:#bedc8a}.D{font-family:sans-serif}]]></style><path d="M35.432 10.815l.047.361-.541.112-.072.769h.648l.862-.083.445-.529-.473-.184-.259-.298-.389-.63-.186-.891-.731.149-.205.314v.354l.352.241zm-.623.296l.039-.482-.429-.185-.6.139-.445.714v.463h.519zm-12.35 2.047l-.132.34h-.639v.33h.152l.022.162.392-.033.245-.152.064-.307.317-.027.125-.258-.291-.06-.255.005zm-1.647.599l-.025.323.463-.039.048-.324-.278-.219zm27.807 10.304l-.11-2.112c-.225-2.317-.779-4.538-1.609-6.62l-.185-.465a24.34 24.34 0 0 0-4.56-7.045l-.379-.396-1.11-1.086C36.344 2.402 30.604 0 24.312 0c-6.345 0-12.126 2.445-16.46 6.44a24.6 24.6 0 0 0-2.78 3.035A24.18 24.18 0 0 0 0 24.312c0 13.407 10.907 24.313 24.313 24.313 9.43 0 17.617-5.4 21.647-13.268a24.08 24.08 0 0 0 1.985-5.354 24.06 24.06 0 0 0 .3-1.441c.245-1.381.379-2.801.379-4.25.001-.084-.004-.167-.005-.251zm-4.576-9.717l.141-.158a21.51 21.51 0 0 1 .523 1.094l-.23-.009-.434.06v-.987zm-3.513-4.242l.004-1.086c.382.405.75.822 1.102 1.254l-.438.652-1.531-.014-.096-.319.959-.487zM11.202 7.403v-.041h.487l.042-.167h.797v.348l-.229.306h-1.098l.001-.446h0zm.778 1.085l.529-.083c.042 0 0 .486 0 .486l-1.098.069-.209-.25.778-.222zm33.612 9.651h-1.779l-1.084-.807-1.141.111v.696h-.361l-.39-.278-1.976-.501v-1.28l-2.504.195-.776.417h-.994l-.487-.049-1.207.67v1.261l-2.467 1.78.205.76h.5l-.131.724-.352.129-.019 1.892 2.132 2.428h.928l.056-.148h1.668l.481-.445h.946l.519.52 1.41.146-.187 1.875 1.565 2.763-.824 1.575.056.742.649.647v1.784l.852 1.146v1.482h.736c-4.096 5.029-10.33 8.25-17.305 8.25C12.009 46.625 2 36.615 2 24.312c0-3.097.636-6.049 1.781-8.732v-.696l.798-.969a21.94 21.94 0 0 1 .891-1.53l.036.405-.926 1.125a22.14 22.14 0 0 0-.798 1.665v1.27l.927.446v1.765l.889 1.517.723.111.093-.52-.853-1.316-.167-1.279h.5l.211 1.316 1.233 1.799-.318.581.784 1.199 1.947.482v-.315l.779.111-.074.556.612.112.945.258 1.335 1.521 1.705.129.167 1.391-1.167.816-.055 1.242-.167.76 1.688 2.113.129.724a9.4 9.4 0 0 0 .687.166c.074 0 1.372.983 1.372.983v3.819l.463.13-.315 1.762.779 1.039-.144 1.746 1.029 1.809 1.321 1.154 1.328.024.13-.427-.976-.822.056-.408.175-.5.037-.51-.66-.02-.333-.418.548-.527.074-.398-.612-.175.036-.37.872-.132 1.326-.637.445-.816 1.391-1.78-.316-1.392.427-.741 1.279.039.861-.682.278-2.686.955-1.213.167-.779-.871-.279-.575-.943-1.965-.02-1.558-.594-.074-1.111-.52-.909-1.409-.021-.814-1.278-.723-.353-.037.39-1.316.078-.482-.671-1.373-.279-1.131 1.307-1.78-.302-.129-2.006-1.299-.222.521-.984-.149-.565-1.707 1.141-1.074-.131-.383-.839.234-.865.592-1.091 1.363-.69 2.632-.001-.007.803.946.44-.075-1.372.682-.686 1.376-.904.094-.636 1.372-1.428 1.459-.808-.129-.106.988-.93.362.096.166.208.375-.416.092-.041-.411-.058-.417-.139v-.4l.221-.181h.487l.223.098.193.39.236-.036v-.034l.068.023.684-.105.097-.334.39.098v.362l-.362.249h.001l.053.397 1.239.382.288-.009.019-.537-.982-.447-.056-.258.815-.278.036-.78-.852-.519-.056-1.315-1.168.574h-.426l.112-1.001-1.59-.375-.658.497v1.516l-1.183.375-.474.988-.514.083v-1.264l-1.112-.154-.556-.362-.224-.819 1.989-1.164.973-.296.098.654.542-.028.042-.329.567-.081.01-.115-.244-.101-.056-.348.697-.059.421-.438.023-.032.005.002.128-.132 1.465-.185.648.55-1.699.905 2.162.51.28-.723h.945l.334-.63-.668-.167v-.797l-2.095-.928-1.446.167-.816.427.056 1.038-.853-.13-.131-.574.817-.742-1.483-.074-.426.129-.185.5.556.094-.111.556-.945.056-.148.37-1.371.038s-.038-.778-.093-.778 1.075-.019 1.075-.019l.817-.798-.446-.223-.593.576-.984-.056-.593-.816h-1.261l-1.316.983h1.206l.11.353-.313.291 1.335.037.204.482-1.503-.056-.073-.371-.945-.204-.501-.278-1.125.009C14.888 3.588 19.417 2 24.312 2c5.642 0 10.797 2.109 14.73 5.574l-.265.474-1.029.403-.434.471.1.549.531.074.32.8.916-.369.151 1.07h-.276l-.752-.111-.834.14-.807 1.14-1.154.181-.167.988.487.115-.141.635-1.146-.23-1.051.23-.223.585.182 1.228.617.289 1.035-.006.699-.063.213-.556 1.092-1.419.719.147.708-.64.132.5 1.742 1.175-.213.286-.785-.042.302.428.483.106.566-.236-.012-.682.251-.126-.202-.214-1.162-.648-.306-.861h.966l.309.306.832.717.035.867.862.918.321-1.258.597-.326.112 1.029.583.64 1.163-.02a22.18 22.18 0 0 1 .604 1.769l-.121.112zm-32.331-7.093l.584-.278.528.126-.182.709-.57.181-.36-.738zm3.099 1.669v.459h-1.334l-.5-.139.125-.32.641-.265h.876v.265h.192zm.614.64v.445l-.334.215-.416.077v-.737h.75zm-.376-.181v-.529l.459.418-.459.111zm.209 1.07v.433l-.319.32h-.709l.111-.486.335-.029.069-.167.513-.071zm-1.766-.889h.737l-.945 1.321-.39-.209.084-.556.514-.556zm3.018.737v.432h-.709l-.194-.28v-.402h.056l.847.25zm-.655-.594l.202-.212.341.212-.273.225-.27-.225zm28.55 5.767l.07-.082.088.38-.158-.298z"/><path d="M3.782 14.884v.696l.798-1.665-.798.969z"/><path d="M23.143 46.562c-6.992-.366-13.4-4.019-17.343-9.885-2.473-3.679-3.752-7.893-3.752-12.365 0-2.842.513-5.58 1.525-8.132l.132-.334.016.504.016.504.472.234.472.234v.878l.001.878.438.752.438.752.373.074c.205.041.384.064.396.051a1.39 1.39 0 0 0 .072-.284c.049-.261.048-.262-.39-.941-.241-.374-.44-.731-.442-.792a10.68 10.68 0 0 0-.073-.602l-.069-.49.225.017.225.017.064.39.101.641c.029.196.17.445.645 1.136l.608.885-.139.275c-.077.151-.132.305-.122.342s.18.322.379.633l.362.566.927.225c.51.124.967.225 1.017.225.059 0 .09-.048.09-.142 0-.133.013-.14.209-.108.503.081.478.061.443.357l-.032.269.317.062c.174.034.526.117.781.184l.465.121.666.763.666.763.485.036c1.145.086 1.236.1 1.239.195.001.05.035.349.074.665l.072.575-.562.397-.576.404c-.008.004-.028.282-.046.616s-.07.789-.116 1.009-.064.434-.04.473.386.499.804 1.02.786.997.819 1.058.076.25.098.42l.039.309.412.108c.344.091.513.182 1.023.554l.611.446.003 1.929.003 1.929.242.061.242.061-.129.712-.159.882c-.026.146.026.245.361.692.215.287.389.573.386.637a40.87 40.87 0 0 1-.071.873l-.066.758.53.922.53.922.65.562.65.562h.695c.687 0 .695-.001.728-.134a2.61 2.61 0 0 1 .065-.216c.021-.054-.135-.224-.466-.507l-.497-.425.045-.236c.025-.13.084-.346.132-.48a1.64 1.64 0 0 0 .087-.453c0-.231-.072-.276-.45-.277-.135 0-.235-.041-.312-.126-.207-.23-.203-.258.066-.503.208-.189.265-.281.289-.469l.031-.233-.271-.079c-.24-.07-.273-.098-.288-.247l-.017-.169.458-.067c.37-.054.584-.13 1.11-.394l.652-.327.223-.407c.123-.224.526-.795.897-1.27s.674-.909.675-.964-.062-.379-.138-.718l-.139-.618.198-.354.198-.354h.658.658l.425-.335c.234-.184.425-.354.425-.376.001-.256.289-2.661.325-2.707l.472-.599c.364-.461.436-.589.51-.909.047-.205.086-.393.086-.42s-.198-.114-.441-.194l-.441-.147-.272-.457-.272-.457-1.056-.032-1.056-.032-.696-.278c-.788-.314-.761-.28-.773-.981-.006-.339-.032-.422-.271-.848l-.265-.472-.678-.001c-.505-.001-.698-.021-.756-.079-.043-.043-.243-.337-.445-.654-.35-.549-.385-.585-.735-.758a4.24 4.24 0 0 0-.394-.181c-.015 0-.027.085-.027.189 0 .18-.011.19-.237.221a7.58 7.58 0 0 1-.648.043l-.411.011-.237-.328-.237-.328-.606-.124c-.333-.068-.658-.125-.722-.126-.081-.002-.285.194-.668.641-.439.513-.575.638-.664.614a22.79 22.79 0 0 0-.871-.153l-.759-.123-.036-.728c-.02-.4-.051-.855-.068-1.011l-.032-.283-.635-.1-.635-.1.254-.466.254-.466-.069-.307c-.038-.169-.083-.307-.1-.307s-.412.253-.877.562l-.846.562-.518-.063c-.285-.035-.522-.068-.526-.074a21.71 21.71 0 0 1-.188-.409l-.181-.397.115-.421c.064-.231.244-.661.4-.954l.285-.533.705-.361.705-.361 1.267-.001 1.267-.001v.409.409l.507.231.507.231-.04-.701-.04-.701.299-.307c.165-.169.63-.529 1.033-.801l.734-.494.038-.301c.037-.293.057-.321.727-1.026.646-.679.73-.747 1.332-1.074.74-.402.869-.492.765-.536-.044-.018.115-.205.417-.49.452-.426.5-.457.649-.414.089.025.198.099.244.164.082.117.085.116.327-.121.134-.132.244-.256.244-.276s-.107-.05-.237-.066c-.422-.051-.543-.126-.543-.335 0-.257.086-.319.443-.318s.401.021.529.27c.089.173.112.185.3.156l.502-.07c.265-.034.304-.057.355-.202.045-.13.081-.157.175-.132a1.01 1.01 0 0 0 .16.032c.023 0 .042.083.042.184 0 .144-.035.204-.167.282-.167.099-.201.213-.135.457.024.089.154.152.598.286.69.209.646.199.826.191.137-.006.149-.027.167-.296l.02-.289-.485-.222c-.455-.208-.608-.337-.506-.427a2.89 2.89 0 0 1 .42-.168l.376-.13v-.409-.409l-.331-.207-.418-.263c-.067-.043-.095-.206-.123-.71-.02-.36-.045-.654-.057-.654s-.27.125-.575.278c-.376.189-.624.278-.768.278h-.213l.04-.32c.022-.176.042-.399.045-.495l.005-.175-.738-.174c-.406-.096-.777-.174-.824-.173s-.229.106-.404.234l-.318.234v.758.758l-.593.192-.593.192-.211.436-.229.491c-.01.03-.124.069-.254.086l-.236.032v-.62c0-.341-.006-.621-.014-.621a95.81 95.81 0 0 1-.558-.078c-.435-.062-.598-.112-.819-.254-.237-.152-.286-.216-.357-.465-.045-.159-.09-.337-.1-.396-.015-.087.17-.218.957-.68.583-.342 1.125-.618 1.349-.687l.454-.145c.085-.033.112.028.172.381l.035.209h.304c.298 0 .304-.003.304-.16 0-.135.028-.166.174-.195.096-.019.234-.035.306-.035.174 0 .173-.151-.002-.23-.085-.039-.143-.12-.157-.222l-.024-.161h.336.336l.295-.317.295-.317.72-.09.72-.09.292.258.292.258-.498.268-.818.441c-.176.095-.32.186-.32.203 0 .023 1.911.489 2.139.522.028.004.113-.149.189-.339l.138-.346.479-.016.479-.016.152-.278c.084-.153.153-.307.153-.342s-.143-.099-.319-.142l-.32-.078-.028-.411-.028-.411-1.03-.456-1.03-.456-.752.093c-.655.081-.804.12-1.152.298l-.4.205.033.511.033.511-.357-.04c-.413-.046-.472-.091-.521-.395-.036-.221-.032-.227.367-.583l.402-.36-.191-.04c-.323-.067-1.461-.067-1.626 0-.146.059-.221.18-.295.477-.03.119-.01.133.229.169l.261.039-.037.231c-.02.127-.067.25-.104.273s-.248.043-.47.043l-.403.001-.078.186-.078.186-.66.033a11.06 11.06 0 0 1-.668.023c-.004-.005-.019-.165-.032-.354l-.024-.344.541-.038.541-.038.397-.399.397-.399-.26-.126-.26-.126-.286.282-.286.282h-.406c-.223 0-.452-.025-.508-.055s-.219-.218-.361-.418l-.259-.363h-.667-.667l-.653.487-.653.487.609.028c.604.028.609.029.649.177.031.117.011.176-.094.274-.073.069-.133.146-.133.171s.244.046.543.047.596.015.662.033a.46.46 0 0 1 .244.359c0 .06-.74.072-1.128.018-.223-.031-.258-.055-.302-.209-.047-.166-.073-.179-.52-.274-.259-.055-.559-.155-.666-.222-.156-.098-.308-.128-.753-.151l-.557-.028.656-.436c3.059-2.035 6.412-3.24 10.122-3.636 1.166-.124 3.245-.123 4.428.003 4.06.433 7.796 1.885 11.029 4.289.337.251.796.613 1.018.805l.405.349-.127.225c-.114.201-.179.244-.628.414-.407.154-.544.236-.728.441l-.227.252.055.305c.05.276.069.305.199.306.322.002.384.054.54.451.083.211.178.383.212.381s.236-.074.451-.161.398-.151.407-.142.049.232.088.496c.082.554.125.52-.535.418-.295-.046-.503-.044-.824.006l-.429.067-.405.579c-.223.319-.421.579-.44.58-.081 0-1.09.173-1.106.189a12.45 12.45 0 0 0-.182.989c0 .02.094.059.209.087.204.05.209.056.197.293-.006.133-.033.264-.059.29s-.285-.001-.585-.062c-.536-.11-.537-.11-1.05.002-.282.062-.53.122-.55.134s-.081.155-.136.318c-.094.28-.095.328-.009.905.05.335.097.614.104.62a8.46 8.46 0 0 0 .303.156c.265.133.347.146.919.141a9.87 9.87 0 0 0 .9-.042c.262-.036.275-.046.377-.307.058-.149.35-.588.648-.977l.542-.707.356.072.356.072.349-.307.349-.307.038.227c.037.22.064.244.895.794.471.312.857.596.858.63.003.15-.182.213-.569.195-.426-.02-.422-.027-.173.31.176.239.512.294.909.152l.28-.101v-.344c0-.295.018-.356.125-.429l.125-.084-.129-.139c-.071-.076-.377-.273-.681-.438-.547-.296-.553-.302-.659-.605l-.147-.404c-.036-.088.004-.097.415-.097h.455l.54.485c.297.267.558.511.581.543s.041.231.042.442l.001.384.423.466c.233.256.44.466.461.466s.109-.285.197-.633l.159-.633.25-.122c.138-.067.262-.11.277-.095s.052.234.082.488c.054.446.065.472.343.785l.287.324.569-.029c.503-.025.575-.017.621.068.119.223.568 1.632.536 1.683-.021.034-.389.056-.932.056h-.897l-.527-.396-.527-.396-.481.038c-.76.06-.731.044-.731.425 0 .321-.003.328-.154.328-.085 0-.245-.062-.357-.138-.131-.089-.542-.222-1.169-.379l-.966-.242-.016-.65-.016-.65-.319.03-1.277.104c-.938.072-.967.078-1.331.278l-.372.204-.765-.011-.765-.011-.59.327-.59.327-.016.641-.016.641-1.142.825-1.216.899c-.062.062-.057.138.028.457l.102.383.236.017c.264.019.259.01.177.394-.05.233-.086.286-.223.334l-.163.057-.012.699-.014.973-.002.273 1.054 1.203 1.054 1.203h.519c.309 0 .519-.023.519-.056s.316-.056.837-.056h.837l.242-.223.242-.223h.465.465l.257.253.257.253.648.069c.356.038.666.087.688.109s0 .445-.049.939l-.089.899.778 1.37.778 1.37-.393.759c-.377.729-.393.775-.393 1.149v.39l.334.326.334.326v.91.91l.418.552.418.552v.752.752l.364.016.364.016-.459.529c-3.556 4.099-8.628 6.806-14.027 7.488-.656.083-2.614.207-2.98.19l-.947-.049zm-1.844-32.647c.027-.137.008-.206-.086-.306-.067-.071-.145-.13-.173-.13-.104 0-.26.257-.262.432s.004.181.242.181c.229 0 .246-.011.279-.177zm1.134-.033c.069-.045.125-.138.125-.208 0-.1.04-.134.192-.163.121-.023.205-.076.226-.145.054-.171-.014-.221-.306-.221-.256 0-.273.009-.307.167s-.045.167-.366.167h-.33v.195c0 .136.025.195.084.195.046 0 .084.038.084.084 0 .068.046.077.237.047.13-.02.293-.074.362-.118zm14.147-2.106c.13-.141.237-.281.237-.309s-.107-.099-.237-.155c-.278-.121-.399-.248-.67-.702-.126-.211-.225-.474-.268-.708-.038-.205-.085-.399-.105-.431-.025-.04-.137-.039-.367.004-.408.076-.637.294-.637.605 0 .186.025.213.445.476.406.254.444.293.432.444s-.04.171-.244.211c-.263.052-.296.118-.298.593l-.001.301.738-.035.738-.035.237-.257zm-2.24-.285c.244-.175.462-.344.485-.376s.041-.162.042-.289c.001-.217-.012-.236-.22-.319-.183-.073-.273-.078-.529-.026-.297.06-.317.075-.531.415-.184.291-.223.402-.223.633v.28h.266c.235 0 .319-.037.71-.318zm-19.738 3.032c-.117-.056-.126-.087-.093-.312.028-.185.103-.326.294-.546.256-.296.258-.297.583-.297.257 0 .317.016.282.074-.191.318-.826 1.151-.875 1.148-.034-.002-.119-.032-.191-.066zm.172-1.448c-.522-.167.172-.599.963-.599.406 0 .416.003.416.139 0 .087.032.139.084.139.058 0 .084.059.084.195v.195l-.682-.006c-.375-.003-.764-.032-.863-.064z" fill="#00f"/><g class="B"><path d="M22.92 46.526c-7.985-.529-15.058-5.287-18.612-12.522-2.605-5.301-2.949-11.75-.92-17.23.24-.649.262-.687.275-.482.037.571.035.569.546.822l.471.233v.893.893l.427.735.427.735.272.058c.55.118.616.081.62-.353.002-.19-.067-.341-.404-.884-.393-.633-.409-.672-.484-1.198l-.078-.574c-.001-.017.085-.021.189-.008.214.025.212.019.311.707.073.507.139.639.821 1.637l.471.69-.125.266c-.077.164-.112.316-.091.396.019.072.191.368.383.659l.35.529.835.204c.928.227 1.198.257 1.198.133s.099-.157.366-.117l.247.037v.277c0 .173.026.284.07.297a42.48 42.48 0 0 0 .765.18l.695.16.657.751c.735.84.657.797 1.576.859.846.057.837.051.883.542.021.224.052.498.069.608.03.199.027.202-.53.6-.631.451-.567.315-.678 1.429l-.092.891c-.024.213.002.256.598 1.003.998 1.25 1.053 1.333 1.092 1.628.048.371.098.442.338.486.341.063.662.228 1.219.626l.523.375.004 1.701c.002.935.021 1.812.042 1.948.034.225.056.252.233.297.107.028.202.057.211.066s-.047.362-.125.784-.142.812-.142.866.168.344.372.644l.372.545-.065.853-.065.853.535.93.535.93.631.545.631.545.738-.016.738-.016.055-.192c.055-.191.053-.193-.441-.652l-.496-.46.126-.437c.073-.253.119-.542.109-.685l-.018-.247-.306-.042c-.227-.031-.339-.08-.434-.187l-.127-.145.223-.242c.215-.234.268-.346.297-.635.011-.113-.021-.146-.193-.195-.25-.072-.339-.153-.314-.286.015-.077.113-.115.431-.169.29-.049.607-.164 1.069-.388l.657-.319.276-.451c.152-.248.474-.714.716-1.036.655-.87.797-1.092.797-1.247 0-.078-.054-.395-.12-.705l-.12-.564.19-.357.19-.357h.675.675l.355-.282c.447-.354.494-.418.494-.662 0-.109.063-.697.139-1.305l.139-1.107.447-.592c.449-.594.567-.851.578-1.255l.006-.218-.418-.151-.418-.151-.268-.447-.268-.447-1.041-.035-1.041-.035-.66-.26c-.406-.16-.688-.304-.731-.374-.039-.063-.087-.315-.105-.56-.028-.363-.072-.518-.236-.835-.111-.214-.227-.421-.258-.46s-.208-.072-.453-.075c-.218-.003-.535-.022-.703-.042l-.306-.036-.418-.613c-.373-.546-.455-.632-.752-.792-.385-.207-.473-.222-.473-.082 0 .224-.118.278-.703.318l-.564.038-.238-.34c-.131-.187-.244-.34-.252-.34s-.257-.05-.555-.111c-.876-.18-.806-.204-1.477.507l-.585.621-.696-.12-.817-.146c-.138-.03-.157-.142-.217-1.267-.022-.415-.061-.682-.106-.727-.039-.039-.313-.104-.608-.145s-.546-.089-.557-.108.089-.23.221-.468.231-.464.219-.501a7.25 7.25 0 0 1-.083-.304c-.033-.13-.091-.236-.128-.235s-.437.246-.888.546l-.821.544-.488-.058-.488-.058-.179-.334c-.099-.184-.18-.397-.181-.473-.002-.219.257-.933.516-1.421l.236-.446.695-.358.695-.358 1.267-.025 1.267-.025.001.439.001.439.474.209c.26.115.496.209.524.209s.04-.132.028-.292l-.048-.688-.025-.396.288-.278c.316-.305.759-.647 1.319-1.017.438-.29.501-.364.501-.584 0-.257.161-.475.878-1.191.566-.565.736-.698 1.266-.991.397-.219.637-.387.682-.479.076-.154.875-.936.957-.936.028 0 .126.063.217.139s.188.139.216.139c.072 0 .463-.41.463-.486 0-.035-.132-.091-.292-.124-.398-.083-.443-.12-.422-.342.015-.161.043-.193.185-.219.318-.057.547.017.668.214l.112.183.445-.033c.453-.034.697-.132.697-.28 0-.051.054-.082.139-.082.116 0 .139.027.139.157 0 .097-.055.209-.142.291-.114.107-.139.177-.125.358l.017.225.529.177c.63.211.892.261.996.192.042-.028.088-.173.102-.321l.025-.271-.49-.251c-.269-.138-.498-.279-.508-.313s.152-.125.36-.202l.378-.14.016-.446.016-.446-.39-.241c-.436-.269-.407-.201-.48-1.122-.019-.237-.054-.432-.078-.432s-.279.11-.566.244-.614.26-.725.28l-.203.035.008-.514.008-.514-.641-.154c-.859-.206-.949-.202-1.312.051l-.3.209-.016.77-.016.77-.587.19-.587.19-.22.451c-.248.508-.263.525-.514.572l-.181.034v-.633-.633l-.37-.04c-.85-.091-1.247-.334-1.381-.847-.091-.347-.116-.316.63-.767.852-.514 1.834-.977 2.074-.977.025 0 .062.125.082.278l.037.278h.315c.299 0 .318-.009.378-.167.051-.135.096-.167.23-.167.362 0 .451-.15.204-.344-.077-.06-.139-.158-.139-.217 0-.095.041-.107.347-.107h.347l.28-.306.28-.306.69-.087.69-.087.25.212c.137.116.248.233.247.26s-.335.227-.74.446-.747.427-.758.462c-.022.066 2.065.605 2.147.554.024-.015.104-.16.179-.323s.161-.314.192-.337.25-.041.487-.042h.431l.14-.277c.199-.392.187-.431-.162-.532l-.302-.088-.039-.412-.039-.412-1.038-.457-1.038-.457-.724.094c-.601.078-.799.129-1.164.3l-.439.206.031.515.031.515-.149-.023-.36-.056c-.158-.025-.225-.068-.265-.173-.11-.289-.067-.383.343-.747.378-.336.391-.355.266-.401-.072-.027-.49-.049-.929-.05-.853-.001-.901.012-1.046.293-.156.302-.084.438.231.438.107 0 .135.029.135.143 0 .29-.076.344-.552.386-.419.037-.446.048-.497.192-.045.129-.094.159-.318.189-.145.02-.435.036-.643.036h-.379l-.037-.25c-.058-.386-.042-.399.533-.432l.512-.029.384-.381c.211-.21.384-.4.384-.423s-.119-.103-.265-.178l-.265-.136-.313.308-.313.308-.429-.04-.429-.04-.287-.383-.287-.383h-.713-.713l-.649.487-.649.487.581.047c.72.058.874.159.609.399-.217.196-.144.238.487.279.6.04.794.109.794.286 0 .058-.132.075-.585.075-.611 0-.672-.022-.835-.3-.032-.055-.201-.128-.398-.174a6.04 6.04 0 0 1-.696-.218 3.13 3.13 0 0 0-.792-.175l-.438-.035.41-.276c3.006-2.024 6.232-3.22 9.99-3.703a32.17 32.17 0 0 1 4.623-.03c3.2.366 6.12 1.295 8.745 2.783 1.089.618 3.334 2.215 3.64 2.59.136.167-.109.41-.681.679-.319.15-.587.321-.721.461-.201.21-.211.237-.176.471.05.332.079.368.336.419.204.04.234.072.405.419.123.251.216.376.282.376.054 0 .253-.061.442-.135s.354-.118.366-.097.039.15.059.288l.065.396.028.145-.796-.006c-.438-.003-.859.013-.936.037-.09.028-.283.247-.543.616l-.404.573-.482.07c-.265.038-.525.093-.577.121-.067.036-.116.184-.165.497-.038.245-.056.481-.04.523s.11.093.209.113c.173.035.178.043.149.263-.017.125-.045.241-.062.258s-.239-.01-.492-.06c-.584-.116-.625-.115-1.216.024l-.49.115-.088.257c-.102.299-.11.587-.03 1.048.1.579.097.573.388.72.258.131.327.139 1.071.134.438-.003.856-.022.93-.043.088-.025.194-.147.307-.358.095-.176.386-.608.645-.96.404-.547.491-.635.598-.61.542.125.602.114.944-.187l.323-.284.036.172c.048.229.121.294.962.866.396.269.73.521.743.559.033.1-.225.181-.575.181-.166 0-.303.017-.303.038 0 .09.259.406.378.46.17.077.549.068.792-.02.187-.067.197-.086.251-.44.039-.258.089-.395.167-.455.109-.084.108-.089-.075-.247-.103-.089-.396-.279-.652-.423s-.49-.29-.519-.326c-.081-.097-.293-.659-.262-.691.015-.015.198-.039.406-.052l.378-.024.562.53.562.53.036.425.036.425.401.442c.221.243.43.442.466.442s.109-.157.161-.348c.264-.961.243-.917.465-1.006.113-.045.223-.073.243-.061s.054.179.077.37c.053.462.096.561.383.889l.243.278.605.009.605.009.272.823c.15.453.262.833.251.845s-.403.039-.87.062l-.848.04-.516-.387-.572-.419c-.063-.037-.959.037-1.137.093-.073.023-.116.084-.116.165a1.91 1.91 0 0 1-.035.303c-.043.215-.129.22-.533.035-.167-.076-.602-.216-.968-.31l-.868-.224-.204-.053-.019-.607c-.01-.334-.037-.626-.06-.648s-.423-.011-.891.026c-1.493.117-1.688.152-2.091.366l-.367.195-.728-.032-.728-.032-.571.318c-.314.175-.59.346-.613.382s-.054.338-.069.674l-.028.61-1.17.853-1.17.853.006.208a2.25 2.25 0 0 0 .072.445c.061.219.08.237.255.237.235 0 .271.055.223.342-.03.178-.078.25-.227.338l-.189.112v.973.973l1.044 1.2 1.044 1.2.78-.038 1.432-.076.652-.038.214-.209c.208-.203.225-.209.627-.209h.414l.28.27.28.27.613.067c.337.037.636.091.665.119s.026.386-.019.939l-.071.888.765 1.347.765 1.347-.37.759c-.357.733-.37.774-.37 1.179l.001.419.334.331.334.331v.91.91l.418.552.418.552v.721c0 .802-.007.788.394.788.12 0 .218.015.218.034s-.292.358-.649.755c-4.218 4.687-10.402 7.402-16.701 7.333l-1.17-.028zm-1.597-32.618c.022-.194-.124-.428-.267-.428s-.28.208-.28.433v.186l.265-.017c.244-.016.266-.029.283-.174zm.983.05c.107-.045.228-.154.278-.251s.133-.171.188-.171c.136 0 .233-.109.233-.262 0-.118-.024-.128-.308-.128-.272 0-.314.015-.358.131-.05.13-.242.203-.539.203-.111 0-.132.028-.132.177 0 .344.252.463.639.301zm14.274-2.139c.13-.143.236-.3.237-.349s-.096-.133-.225-.191c-.399-.18-.74-.697-.916-1.39-.094-.371-.134-.449-.233-.463-.194-.028-.556.093-.739.246-.142.119-.17.183-.17.388 0 .243.004.248.404.511.299.197.408.302.42.405.014.119-.018.151-.223.222l-.239.083-.016.425-.016.425.74-.026.74-.026zm-2.405-.183c.152-.096.369-.248.484-.339.191-.151.209-.188.209-.441 0-.267-.007-.28-.207-.363-.238-.099-.628-.068-.833.066-.231.151-.463.632-.463.96v.292h.268a.89.89 0 0 0 .543-.174z"/><path d="M24.883 46.173c-4.058-.4-7.724-1.731-10.89-3.952-3.958-2.777-6.994-6.86-8.441-11.354-.7-2.174-1.014-4.067-1.066-6.439-.062-2.799.328-5.284 1.221-7.764.23-.639.24-.656.286-.473.097.386.139.434.592.661l.448.225v.901.901l.404.713c.375.663.419.718.616.773.117.033.317.052.445.042.193-.014.241-.042.283-.162.083-.237-.003-.5-.365-1.112-.381-.644-.462-.863-.52-1.408-.037-.347-.033-.371.071-.371.17 0 .221.1.312.622.101.576.223.829.837 1.731l.468.687-.103.193c-.173.325-.139.482.232 1.058.187.29.358.547.381.571.064.067 1.621.429 1.85.429.132 0 .214-.03.236-.086.025-.065.099-.082.298-.07l.265.017.028.278.028.278.752.187.752.187.594.681c.334.383.676.72.781.77s.476.114.851.146c.418.036.692.086.74.134.077.077.178.63.18.987.001.183-.032.222-.486.557-.268.198-.519.428-.559.51-.087.182-.265 1.872-.217 2.057.019.072.35.533.735 1.023.782.995.853 1.108.941 1.502.067.299.103.329.616.509.153.053.541.275.863.492l.586.395.03 1.921.042 1.937c.006.009.099.053.206.098s.195.114.195.155-.05.347-.111.682c-.166.915-.166.919.247 1.536l.359.537-.061.855-.061.855.52.911c.516.903.526.916 1.151 1.468l.63.557.764-.008c.821-.009.849-.019.85-.307.001-.135-.083-.243-.466-.6l-.467-.436.105-.398c.058-.219.105-.528.105-.687v-.289l-.327-.064c-.185-.036-.369-.111-.424-.171-.093-.103-.089-.117.106-.355.185-.226.31-.505.31-.692 0-.04-.115-.121-.255-.181-.384-.165-.322-.275.231-.416.247-.063.723-.247 1.058-.41.604-.293.611-.299.859-.695.137-.219.506-.756.819-1.192s.596-.842.627-.901c.083-.155.068-.462-.049-1.022l-.102-.489.192-.361.192-.361h.688c.663 0 .695-.005.874-.149.489-.394.594-.526.624-.791l.152-1.316.123-1.058.387-.529c.496-.678.604-.895.639-1.285l.029-.317-.3-.098c-.503-.165-.583-.227-.835-.659l-.241-.413-.33-.035a13.2 13.2 0 0 0-1.017-.035c-.674 0-.698-.004-1.259-.228-.666-.265-.868-.376-.906-.496-.015-.048-.052-.28-.082-.515a2.44 2.44 0 0 0-.275-.868l-.221-.439-.296-.036a5.8 5.8 0 0 0-.547-.037c-.564-.003-.621-.032-.907-.469-.387-.591-.631-.855-.935-1.009-.34-.172-.43-.172-.474.002-.041.163-.234.225-.831.269l-.39.029-.223-.33c-.123-.181-.26-.342-.306-.356a6.24 6.24 0 0 0-1.154-.196c-.25 0-.269.013-.874.605l-.618.605-.724-.13c-.479-.086-.746-.16-.789-.219-.036-.049-.08-.331-.099-.628-.059-.919-.095-1.18-.174-1.259-.042-.042-.246-.104-.454-.139l-.53-.094-.152-.031.225-.448c.22-.438.224-.455.159-.724-.036-.152-.101-.289-.143-.305-.09-.034-.391.135-1.183.665l-.576.385-.454-.061c-.361-.049-.474-.087-.551-.186-.167-.216-.282-.584-.252-.807.037-.277.353-1.067.567-1.421.156-.258.23-.313.84-.629l.668-.347 1.265-.033 1.265-.033.016.453.016.453.437.186c.24.102.475.186.521.186.072 0 .078-.095.044-.686l-.04-.686.371-.34c.204-.187.599-.499.877-.693.711-.496.825-.597.826-.734.003-.285.238-.621.877-1.253.509-.504.781-.723 1.212-.977.436-.257.661-.439 1.044-.846.269-.285.539-.535.599-.554.069-.022.164.008.256.08.081.063.191.115.245.115.111 0 .444-.353.444-.471 0-.046-.132-.119-.32-.179-.283-.09-.322-.12-.339-.262-.021-.183.059-.255.286-.256.215-.001.451.131.525.294.057.124.087.134.359.112.528-.042.813-.127.909-.274.049-.075.113-.121.143-.103.088.055.06.251-.058.401-.072.092-.111.226-.111.382v.24l.612.198c.911.294 1.01.274 1.073-.222l.029-.225-.493-.271c-.271-.149-.48-.291-.465-.316s.177-.1.36-.166l.332-.121v-.378c0-.208.014-.415.031-.46.022-.056-.075-.146-.309-.288-.42-.255-.483-.352-.527-.808-.06-.617-.094-.78-.161-.78-.036 0-.293.1-.572.223s-.586.238-.682.258l-.175.035v-.504-.504l-.614-.144c-.83-.195-1.033-.189-1.371.037-.321.215-.339.273-.348 1.14l-.007.625-.578.176-.578.176-.188.389c-.229.473-.388.654-.576.654h-.142v-.612c0-.59-.004-.612-.125-.636-.069-.013-.298-.053-.51-.088-.642-.106-.922-.299-1.067-.736-.07-.212-.076-.29-.024-.352.104-.125 1.14-.733 1.775-1.041.641-.311.911-.364.94-.184.061.373.048.362.406.362.301 0 .34-.014.397-.138.045-.099.127-.15.291-.183.268-.053.329-.209.147-.374-.063-.057-.114-.134-.114-.171 0-.073.243-.138.518-.138.134 0 .224-.061.431-.292l.262-.292.671-.087.671-.087.227.189c.125.104.227.21.227.236s-.313.226-.695.445-.709.42-.726.447.019.076.079.108c.139.075 1.826.504 1.979.504.083 0 .161-.089.281-.32l.167-.32.482-.05.482-.05.123-.262c.165-.353.137-.447-.167-.546-.138-.045-.262-.092-.275-.104s-.044-.199-.067-.417-.05-.4-.059-.407a77.87 77.87 0 0 0-1.049-.464l-1.033-.452-.572.08c-.697.098-1.053.191-1.467.385l-.316.148.032.499c.036.56.047.549-.396.446-.248-.057-.31-.13-.311-.361-.001-.129.077-.238.369-.519.248-.239.351-.374.314-.412-.084-.084-1.741-.092-1.887-.008s-.26.346-.235.526c.013.09.061.137.158.15.199.027.267.101.237.256-.031.163-.103.196-.569.256-.337.043-.458.111-.518.291-.02.06-1.078.173-1.195.128-.089-.034-.099-.51-.011-.564.033-.021.271-.051.527-.067l.467-.029.368-.382c.203-.21.359-.413.346-.452s-.139-.133-.282-.209l-.26-.139-.31.306-.31.306-.346-.019c-.42-.022-.506-.074-.792-.474l-.223-.312-.767-.001-.767-.001-.646.485c-.355.267-.624.491-.598.499s.279.038.562.069.567.084.632.119l.119.064-.117.124c-.236.252-.169.302.5.371.49.051.72.119.72.214 0 .071-.491.108-.857.065-.265-.031-.348-.067-.434-.185s-.263-.196-.842-.378c-.404-.127-.898-.249-1.098-.27l-.363-.038.641-.424c2.686-1.778 5.749-2.922 9.218-3.442.99-.148 3.518-.213 4.678-.12 2.925.235 6.208 1.212 8.745 2.601 1.135.622 3.453 2.223 3.893 2.689.151.16.156.179.077.3-.046.071-.317.254-.602.406-.68.364-.945.61-.945.878 0 .336.083.473.331.547.193.058.252.116.411.407.218.397.299.425.772.262l.317-.109.059.277c.113.527.159.494-.684.494-.409 0-.821.027-.914.06-.12.042-.292.223-.578.613-.355.482-.432.557-.603.584-.724.116-.863.163-.937.318-.04.084-.088.329-.106.544l-.033.391.175.066c.147.055.175.096.175.246 0 .099-.026.195-.057.215s-.283.004-.559-.036c-.393-.056-.583-.057-.876-.005-.723.127-.771.152-.841.427-.079.313-.079.807-.001 1.231.071.384.109.44.393.585.181.092.331.107 1.071.107.474 0 .9-.015.948-.034s.299-.351.557-.738.56-.809.67-.938l.201-.233.375.029c.373.029.375.028.645-.198.302-.254.37-.276.37-.123 0 .137.278.382 1.044.919.345.241.627.459.627.484 0 .059-.128.093-.515.139-.379.044-.398.102-.127.389l.193.205.418-.021c.497-.025.564-.076.641-.484.031-.163.099-.368.15-.455.092-.155.091-.163-.041-.274-.074-.063-.37-.256-.657-.429-.468-.282-.535-.344-.654-.599-.187-.401-.179-.424.14-.424.151 0 .311-.014.357-.032.055-.021.28.158.653.518l.57.55.035.429.035.429.415.418c.228.23.446.418.484.418.057 0 .193-.378.385-1.065.032-.116.184-.249.338-.295.1-.03.126-.01.15.119l.091.468c.047.242.119.38.317.613l.256.3.617.028.617.028.244.77c.134.423.23.783.214.8s-.387.051-.823.076l-.793.046-.578-.422-.578-.422-.557.055c-.306.03-.582.081-.614.112s-.071.162-.088.291-.062.246-.099.26-.366-.072-.73-.193-.893-.274-1.174-.343l-.512-.124-.032-.287a10.65 10.65 0 0 1-.045-.621l-.013-.334-.223-.02c-.266-.023-1.778.091-2.172.165-.153.029-.441.128-.641.222-.355.167-.378.17-1.114.155l-.752-.015-.501.288-.583.342c-.058.038-.098.244-.139.709l-.057.655-1.158.838-1.158.838.029.312c.044.475.103.587.335.63.183.034.199.053.199.232 0 .139-.042.234-.147.332-.081.075-.169.137-.195.137s-.048.464-.048 1.031v1.031l1.04 1.194 1.04 1.194.338-.025c.186-.014.84-.051 1.452-.083l1.114-.058.195-.19c.17-.165.244-.195.575-.228l.38-.039.289.285.289.285.64.085.662.085a17.68 17.68 0 0 1-.081 1.744c-.014.037.323.679.747 1.427l.772 1.361-.354.728c-.351.721-.354.733-.355 1.203v.475l.334.331.334.331v.911.911l.418.545.418.545v.706c0 .516.019.712.07.728.038.012.165.038.281.057l.212.035-.351.398c-1.61 1.827-3.297 3.236-5.308 4.434a22.37 22.37 0 0 1-8.614 3.02c-.699.098-1.176.123-2.61.135-.965.008-1.855.005-1.977-.007zM23.676 13.6c.026-.23-.091-.423-.258-.423-.185 0-.285.147-.287.42l-.002.225.265-.03c.242-.028.266-.044.283-.193zm1.209-.107c.095-.11.24-.225.322-.256.117-.044.149-.094.149-.225 0-.166-.004-.168-.296-.168-.247 0-.317.023-.417.139-.067.077-.178.14-.247.14-.299.002-.376.058-.376.273 0 .288.085.353.416.323.233-.022.304-.057.449-.225zm13.588-1.689c.242-.031.306-.068.487-.282.115-.136.209-.29.209-.343s-.127-.18-.291-.289c-.357-.236-.567-.564-.796-1.244-.159-.474-.182-.509-.334-.526-.23-.026-.54.077-.714.239-.115.106-.148.189-.148.372 0 .13.037.276.083.326.076.084.057.09-.237.071-.442-.028-.66.093-.861.479a1.18 1.18 0 0 0-.155.599v.3h.3c.257 0 .347-.032.627-.219.53-.355.577-.415.577-.732 0-.248.011-.273.097-.225.168.091.348.286.348.375 0 .048-.097.124-.223.173l-.223.088v.349c0 .192-.015.389-.034.437-.029.076.035.088.487.088.287 0 .646-.016.8-.036z"/></g><path d="M23.226 48.564c-7.179-.298-13.941-3.873-18.319-9.686C1.952 34.954.237 30.162.065 25.343c-.148-4.141.62-7.891 2.356-11.502C5.217 8.026 10.307 3.474 16.365 1.372A24.73 24.73 0 0 1 22.302.112a33.41 33.41 0 0 1 4.015-.001C30.83.497 35.151 2.13 38.752 4.81c1.49 1.109 3.349 2.899 4.49 4.325a24.39 24.39 0 0 1 4.41 8.508c.601 2.095.857 3.833.901 6.126.048 2.527-.139 4.226-.716 6.496-1.501 5.902-5.171 11.025-10.311 14.393-3.508 2.299-7.935 3.748-11.876 3.887l-1.114.044c-.184.009-.773-.002-1.309-.024zm2.534-1.972c4.666-.231 9.496-2.213 13.157-5.397.862-.749 2.745-2.697 2.745-2.838 0-.02-.175-.036-.39-.036h-.39v-.742-.742l-.416-.553-.416-.553-.001-.893-.001-.893-.334-.331-.334-.331-.001-.364c-.001-.343.023-.409.401-1.147l.402-.784-.786-1.389-.786-1.389.094-.933.094-.933-.17-.027a19.82 19.82 0 0 0-.709-.08l-.539-.054-.258-.254-.258-.254h-.515-.515l-.218.223-.218.223h-.852c-.531 0-.852.021-.852.056s-.194.056-.47.056h-.47l-1.066-1.211-1.066-1.211.032-.412c.017-.227.032-.636.032-.91v-.498l.164-.062c.17-.064.192-.113.256-.555l.038-.265h-.245-.245l-.098-.369c-.094-.354-.094-.371.002-.44l1.214-.877 1.114-.806.028-.65.028-.65.557-.31.557-.31.755.009.755.009.445-.215c.441-.213.454-.216 1.473-.284.565-.038 1.097-.082 1.181-.099l.153-.03v.641c0 .563.012.645.097.67.054.016.499.132.989.259.518.134.978.286 1.099.365a.86.86 0 0 0 .401.135h.193l.017-.348.017-.348.545-.047.545-.047.525.395.525.395h.95c.788 0 .955-.014.982-.082.029-.075-.318-1.208-.511-1.668l-.078-.187-.573.028-.573.028-.29-.333c-.283-.325-.292-.345-.351-.826-.034-.271-.071-.502-.083-.514s-.155.052-.317.144l-.295.166-.149.57c-.082.314-.16.581-.174.595s-.2-.164-.416-.395l-.391-.419-.02-.436c-.02-.43-.023-.438-.243-.627-.123-.105-.375-.335-.562-.512l-.339-.321h-.517-.517l.038.153c.021.084.093.29.159.458.118.297.135.312.706.63.72.4.78.452.619.538-.101.054-.118.114-.118.409v.346l-.253.104c-.418.172-.721.085-.923-.265-.058-.1-.043-.104.308-.076.359.029.372.025.486-.134.064-.09.108-.171.097-.179s-.412-.282-.892-.609c-.839-.571-.874-.602-.91-.817-.044-.26-.123-.28-.311-.079a3.72 3.72 0 0 1-.332.302c-.196.156-.199.157-.546.084l-.348-.073-.554.714c-.305.394-.599.834-.654.982-.097.262-.106.269-.376.305a9.12 9.12 0 0 1-.841.042c-.491.004-.604-.013-.872-.136l-.308-.141-.057-.347c-.131-.793-.131-.815-.038-1.097.051-.153.112-.291.135-.305a5.44 5.44 0 0 1 .536-.136c.49-.109.496-.109 1.024-.001.292.06.559.098.594.085s.079-.125.099-.247a2.17 2.17 0 0 1 .069-.309c.025-.066-.028-.102-.222-.151-.218-.055-.251-.082-.229-.183a15.99 15.99 0 0 0 .083-.448c.031-.181.067-.339.078-.351s.272-.061.579-.108l.558-.087.398-.571.398-.571.399-.066a2.71 2.71 0 0 1 .917.002c.285.037.527.057.539.044a6.97 6.97 0 0 0-.159-1.099c-.025-.025-.168.021-.621.202l-.285.114-.149-.38c-.154-.393-.217-.445-.541-.447-.119-.001-.153-.033-.181-.175-.063-.313-.038-.403.169-.615.144-.148.355-.267.717-.408.483-.187.521-.214.645-.453l.132-.254-.278-.25a22.85 22.85 0 0 0-1.068-.844c-2.376-1.788-5.042-3.075-7.844-3.787-6.218-1.579-12.68-.479-17.972 3.061-.358.239-.666.461-.686.492-.024.038.158.058.539.058.492 0 .602.017.769.121.107.067.42.174.695.239.471.111.503.128.549.289s.069.173.385.206a9.22 9.22 0 0 0 .78.035c.4 0 .44-.009.404-.097a8.78 8.78 0 0 1-.093-.244c-.063-.173-.236-.214-.906-.215l-.441-.001.127-.135c.114-.122.12-.155.062-.332l-.065-.197-.528-.016-.528-.016.581-.432.581-.432h.621.621l.28.384c.154.211.335.399.403.417s.31.033.539.034l.416.001.28-.275.28-.275.181.095.181.095-.378.375-.378.375-.533.035-.533.035.027.396c.015.218.03.399.034.403s.327-.006.719-.022l.713-.029.078-.187c.075-.18.09-.187.38-.187.535 0 .635-.04.676-.271.02-.112.048-.243.062-.293.021-.072-.032-.098-.259-.128-.239-.032-.279-.053-.246-.133.021-.052.062-.161.092-.242.037-.101.107-.158.224-.181.267-.053 1.483-.04 1.518.017.017.028-.122.19-.31.36-.337.305-.341.312-.305.541.061.379.104.422.481.464.187.021.379.054.428.072.077.03.084-.03.06-.508l-.028-.541.424-.212c.369-.185.514-.223 1.111-.292l.687-.08 1.011.45 1.011.45.028.413.028.413.317.077.317.077-.148.301-.148.301h-.482-.482l-.122.334c-.067.184-.152.334-.188.335s-.502-.103-1.034-.23l-.967-.231.813-.424c.447-.233.814-.44.814-.46s-.143-.16-.319-.312l-.32-.276-.74.093-.74.093-.32.317c-.312.309-.328.317-.629.317-.17 0-.321.012-.336.026s-.016.115-.003.223c.018.152.054.205.156.231.22.055.151.118-.173.158-.293.037-.306.045-.306.201s-.011.163-.245.163c-.262 0-.312-.051-.313-.325-.002-.299-.053-.312-.588-.149-.356.109-.754.303-1.441.706l-.997.602c-.027.026-.022.129.011.233s.085.289.117.414c.079.308.465.555.995.634l.554.087.181.031v.63.63l.153-.024c.396-.061.398-.063.653-.571l.249-.496.586-.18.586-.18v-.764-.764l.304-.229c.167-.126.331-.229.364-.229a13.41 13.41 0 0 1 .787.173l.727.173-.036.342c-.02.188-.049.411-.065.496-.029.149-.023.153.227.153.186 0 .374-.059.687-.215.667-.334.681-.335.681-.075 0 .12.016.406.035.635l.035.417.409.246.409.246.001.371.001.371-.376.123c-.452.148-.475.166-.431.341.027.107.138.182.518.348l.484.212-.02.245c-.018.22-.034.245-.161.245-.197 0-1.259-.333-1.309-.41-.089-.137-.038-.309.124-.425.136-.097.167-.159.167-.331s-.023-.219-.125-.246c-.24-.064-.311-.039-.347.126-.033.149-.06.164-.353.198a11.99 11.99 0 0 0-.49.066c-.152.026-.181.009-.244-.144-.093-.225-.206-.281-.572-.281-.406 0-.5.077-.478.392l.018.249.348.086.348.086-.184.178c-.163.158-.193.169-.267.094a.76.76 0 0 0-.271-.138c-.183-.053-.197-.044-.676.424-.269.263-.477.508-.463.545s-.262.225-.677.453c-.67.369-.735.421-1.389 1.113-.67.709-.687.733-.725 1.034l-.038.308-.706.455c-.388.25-.853.604-1.033.786l-.328.331.039.675.039.675-.185-.078a11.31 11.31 0 0 1-.449-.208l-.265-.13v-.407-.407h-1.31-1.31l-.709.357-.709.357-.292.536c-.168.308-.344.731-.414.995l-.122.46.188.416.191.425c.002.005.256.04.564.077l.561.068.839-.561.839-.561.063.25c.061.242.055.266-.196.751-.142.276-.25.509-.238.518s.303.063.647.12c.481.079.628.123.632.189l.07 1.006.064.919.863.151c.475.083.892.146.926.139s.307-.293.605-.638.571-.627.606-.627.336.054.668.12l.605.12.246.338.246.338.403-.015a11.57 11.57 0 0 0 .695-.047c.278-.031.292-.041.292-.193 0-.088.013-.161.029-.161s.176.074.354.164c.301.152.353.208.707.773l.382.61.28.034a7.81 7.81 0 0 0 .726.035l.446.001.265.467c.23.406.265.509.268.793.002.18.021.424.042.542l.039.216.776.298.776.298.977.015.977.015.279.46.279.46.39.122c.214.067.408.136.43.154s.002.192-.043.388c-.071.306-.15.441-.555.956l-.472.6-.142 1.353-.153 1.357c-.006.002-.191.147-.412.322l-.401.318h-.66-.66l-.212.363-.212.363.149.672c.082.369.137.704.122.743s-.337.471-.715.96-.773 1.051-.877 1.25l-.19.361-.673.318c-.497.235-.786.335-1.105.384l-.432.066v.211c0 .204.009.214.265.288.221.064.267.101.282.225.014.116-.049.218-.289.469l-.307.321.178.206c.16.186.208.208.484.221.304.015.306.017.324.203.01.104-.032.329-.093.501a3.31 3.31 0 0 0-.139.519c-.027.198-.014.218.347.512.539.441.582.496.537.698l-.038.171-.65-.001-.65-.001-.658-.575c-.657-.574-.659-.576-1.165-1.461l-.507-.886.066-.884.066-.884-.39-.519-.39-.519.139-.769.165-.887c.022-.1-.012-.129-.224-.188l-.25-.07v-1.914-1.914l-.523-.388c-.671-.497-.828-.584-1.212-.665l-.315-.067-.038-.29c-.021-.159-.069-.354-.108-.434s-.426-.588-.862-1.131l-.792-.986.087-.384c.048-.211.088-.53.088-.707a6.24 6.24 0 0 1 .034-.604l.034-.281.583-.408c.487-.341.578-.428.555-.527-.015-.065-.058-.385-.095-.711l-.068-.592-.397-.033-.856-.07-.46-.037-.669-.763-.669-.763-.597-.147-.768-.179c-.169-.032-.17-.034-.136-.306.039-.307.071-.285-.515-.362-.256-.034-.265-.03-.265.108 0 .078-.026.143-.057.143s-.464-.102-.961-.226l-.904-.226-.383-.581-.383-.581.156-.298.156-.298-.621-.914-.621-.914-.101-.641-.101-.641-.291-.017c-.278-.016-.29-.011-.264.111.015.071.057.366.092.657.064.524.069.536.492 1.198.413.647.426.676.381.9l-.047.231-.235-.03c-.41-.053-.447-.088-.892-.852l-.429-.738v-.886-.886l-.473-.218-.473-.218v-.588c0-.587.001-.589.282-1.214.376-.836.497-1.034 1.009-1.661.389-.476.436-.558.436-.766 0-.128-.019-.232-.042-.231-.047.002-.235.302-.645 1.029a8.27 8.27 0 0 1-.689.994l-.407.492v.362c0 .296-.045.475-.245.984-1.117 2.84-1.64 6.078-1.479 9.166.115 2.208.457 4.027 1.137 6.05 2.924 8.697 10.97 14.769 20.11 15.175.873.039 1.27.035 2.506-.027zm20.334-27.233c-.036-.192-.143-.279-.143-.117 0 .105.122.373.155.34.014-.014.009-.114-.012-.223zm-1.375-4.075c.012-.01-.099-.27-.246-.577-.255-.532-.273-.554-.37-.466-.085.077-.102.179-.102.607v.515l.348-.03c.191-.017.358-.039.37-.049zm-28.055-.394c.128-.123.156-.197.156-.412v-.263l-.237.028c-.134.016-.277.074-.329.134s-.156.106-.234.106c-.116 0-.152.037-.2.209-.096.345-.094.348.314.348.329 0 .391-.018.529-.15zm-1.329-.853c.266-.367.483-.681.483-.696s-.182-.025-.404-.022l-.404.006-.259.286c-.221.244-.265.332-.297.594-.038.307-.038.308.148.4a1.6 1.6 0 0 0 .218.096c.018.002.25-.297.515-.665zm2.766.262v-.239l-.376-.102-.473-.13c-.083-.023-.097.012-.097.239 0 .391.095.47.566.47h.381zm-1.354-.323c.235-.114.24-.123.24-.39v-.274h-.39-.39v.39c0 .386.002.39.15.39.082 0 .258-.052.39-.116zm1.098-.348l.162-.129-.208-.129-.208-.129-.118.118-.118.118.132.141c.161.171.158.171.358.011zm-1.47-.678c0-.186-.022-.251-.084-.251-.052 0-.084-.053-.084-.139 0-.137-.006-.139-.464-.139-.614 0-1.072.172-1.187.446-.042.101-.07.189-.062.195.087.071.592.128 1.171.132l.71.006zm.578.169l.161-.036-.161-.169c-.088-.093-.205-.193-.258-.222-.087-.047-.097-.022-.097.231 0 .244.014.28.097.258.054-.015.17-.043.258-.062zm-2.888-1.448c.155-.065.184-.113.249-.419.083-.389.071-.411-.268-.474-.218-.041-.788.171-.789.294 0 .039.076.223.17.409.186.369.202.374.639.191zm27.367-1.036c.131-.185.23-.36.22-.387s-.268-.334-.575-.68l-.557-.629-.016.571-.016.571-.458.229-.472.241c-.008.007.001.091.021.187l.035.174.62.018.79.03c.15.01.198-.028.408-.325zM12.274 8.932l.258-.035v-.263-.263l-.275.043c-.357.056-.964.222-1.03.281-.031.027-.01.092.05.159.11.121.471.149.996.077zm.168-1.216a.72.72 0 0 0 .09-.334v-.197h-.412c-.315 0-.419.02-.444.084-.021.055-.108.084-.257.084h-.225v.251.251h.578c.553 0 .582-.006.668-.137z" fill="#d40000"/><g class="C"><path d="M22.697 48.509c-6.77-.451-13.08-3.777-17.382-9.16-.633-.792-1.662-2.318-2.139-3.173C.414 31.231-.524 25.678.447 20.023c.598-3.483 2.214-7.198 4.405-10.125.832-1.111 1.504-1.873 2.591-2.937 3.608-3.53 8.102-5.8 13.055-6.594 1.376-.221 2.024-.266 3.815-.266 2.386 0 3.801.168 5.891.702 1.703.435 3.203.98 4.691 1.706 2.616 1.276 4.709 2.815 6.921 5.089 3.575 3.674 5.92 8.582 6.56 13.734.12.964.171 3.967.086 5.043-.231 2.92-1.114 6.039-2.48 8.763-2.327 4.639-6.205 8.522-10.821 10.833-1.973.988-4.401 1.809-6.505 2.201-1.807.336-4.055.463-5.96.336zm4.075-1.974c4.632-.486 9.204-2.571 12.646-5.765.815-.756 2.244-2.27 2.244-2.377 0-.052-.109-.072-.39-.072h-.39v-.773-.773l-.383-.501-.383-.501-.04-.94-.04-.94-.336-.342-.336-.342.04-.346c.031-.266.129-.526.421-1.118l.381-.772-.785-1.381-.785-1.381.093-.914c.051-.503.073-.933.049-.956s-.345-.073-.712-.11l-.668-.068-.253-.243-.253-.243h-.558-.558l-.211.216-.211.216-.984.036-1.29.062-.306.025-1.058-1.213c-.582-.667-1.056-1.243-1.053-1.28a47.71 47.71 0 0 0 .014-.902l.008-.834.141-.035c.176-.044.232-.149.295-.544l.049-.314h-.24-.24l-.086-.289c-.047-.159-.085-.328-.084-.376s.524-.463 1.191-.942l1.189-.855.039-.66.039-.66.566-.313.566-.313.752.014.752.014.452-.206c.438-.199.487-.208 1.556-.292.607-.047 1.123-.098 1.147-.113s.051.268.059.628l.016.655.891.241c.49.132 1.026.302 1.19.378a1.51 1.51 0 0 0 .481.137c.202 0 .248-.085.25-.46 0-.127.028-.21.07-.213a30.31 30.31 0 0 0 .515-.047l.446-.043.514.382.514.382h.978c.802 0 .983-.015 1.009-.081.037-.096-.077-.521-.351-1.305l-.202-.578-.579.026-.579.026-.225-.256c-.302-.342-.356-.463-.426-.943-.033-.225-.075-.425-.094-.444s-.169.035-.333.121l-.298.156-.156.581-.156.581-.381-.381-.381-.381-.031-.442-.031-.442-.536-.514-.536-.514-.566-.002-.566-.002.055.199c.09.327.249.658.36.753.058.049.336.22.619.38s.527.311.542.337-.009.077-.055.115c-.056.047-.083.174-.083.398 0 .307-.01.333-.153.39-.084.034-.267.073-.406.088a.44.44 0 0 1-.434-.125c-.099-.084-.167-.166-.149-.184s.159-.025.314-.016c.23.012.308-.009.416-.111.073-.069.134-.157.134-.196s-.345-.308-.766-.597c-.833-.573-.983-.709-1.038-.942-.052-.221-.171-.192-.524.13-.271.248-.332.279-.481.249-.094-.019-.261-.049-.371-.066l-.2-.032-.498.663c-.274.365-.572.805-.662.977-.094.18-.212.327-.277.344s-.439.03-.837.03c-.647 0-.755-.014-1.009-.133l-.285-.133-.071-.558c-.058-.455-.058-.606.001-.816.084-.301.115-.322.683-.447.41-.091.461-.09.996.004.646.114.671.103.738-.315.044-.273.023-.311-.189-.357-.091-.02-.18-.059-.196-.086-.047-.076.087-.766.16-.824.035-.028.299-.091.587-.14s.528-.095.536-.104a70.71 70.71 0 0 0 .387-.559c.263-.382.418-.555.523-.585.082-.023.506-.037.943-.031.712.009.793.001.791-.084-.006-.206-.147-.958-.186-.998-.023-.023-.234.027-.469.111s-.435.134-.443.111c-.207-.549-.271-.654-.43-.702-.41-.123-.418-.13-.418-.391 0-.213.028-.27.209-.435.115-.104.42-.276.678-.382.409-.168.489-.225.626-.441.086-.136.157-.268.157-.293s-.332-.31-.738-.634c-3.451-2.753-7.219-4.32-11.655-4.848-1.164-.139-3.686-.139-4.817-.001-3.322.405-6.213 1.366-8.926 2.968-.716.423-1.769 1.131-1.769 1.19 0 .022.267.057.593.079.341.023.643.072.71.116s.317.13.562.196c.496.134.696.238.696.363 0 .046.064.108.143.138.175.067 1.472.073 1.472.007 0-.133-.135-.407-.225-.455-.056-.03-.346-.055-.643-.055-.536 0-.54-.001-.442-.11.074-.082.091-.162.067-.313-.018-.112-.046-.216-.062-.232s-.243-.044-.503-.063l-.474-.033.552-.404.552-.404.576.001.576.001.165.234a6.17 6.17 0 0 0 .326.417l.161.183h.535.535l.257-.254c.242-.238.267-.249.408-.185l.151.069-.377.38c-.375.378-.379.38-.685.38-.169 0-.402.016-.517.035-.197.033-.209.046-.208.236a3.1 3.1 0 0 0 .035.41l.035.209h.402a8.69 8.69 0 0 0 .742-.035c.305-.032.345-.051.392-.187.057-.164.224-.223.642-.224.291-.001.358-.045.426-.281.095-.331.076-.376-.182-.428-.207-.042-.235-.065-.221-.184.036-.312.23-.358 1.431-.337l.332.006-.319.322c-.336.34-.386.495-.264.817.064.168.19.224.628.278l.32.039v-.537-.537l.404-.185c.393-.18.776-.267 1.462-.334.326-.032.359-.022 1.309.404l.975.436.05.426.05.426.298.067c.164.037.298.076.298.088a3.2 3.2 0 0 1-.14.297l-.14.277h-.473-.473l-.135.306c-.084.191-.17.306-.226.306-.05 0-.49-.092-.978-.204l-.887-.204.766-.403c.451-.238.766-.437.766-.485s-.132-.201-.294-.346l-.294-.264-.764.095-.764.095-.307.302c-.289.283-.329.304-.654.338s-.347.044-.347.185c0 .163.093.309.223.351.08.026.022.046-.356.124-.081.017-.146.079-.167.161-.039.157-.127.2-.325.162-.121-.023-.152-.069-.193-.287-.048-.258-.05-.259-.26-.246-.338.02-1.056.341-1.97.879-.644.379-.849.527-.849.612a2.36 2.36 0 0 0 .254.795c.131.199.594.388 1.147.466l.492.07v.636.636l.209-.038c.315-.057.393-.131.645-.615l.232-.444.557-.171.557-.171.015-.762.015-.762.296-.223c.163-.123.356-.223.43-.222.23.003 1.416.31 1.408.364a24.67 24.67 0 0 0-.047.484l-.039.432h.264c.192 0 .401-.063.763-.23.588-.271.593-.268.602.341.009.615.033.662.453.914l.37.222.038.328c.021.181.017.348-.01.372s-.176.085-.332.136c-.399.129-.492.208-.449.379.028.11.136.186.509.357.382.175.474.24.474.337.001.207-.062.297-.208.297a4.56 4.56 0 0 1-1.086-.314c-.196-.101-.201-.291-.011-.468.114-.107.139-.177.125-.358-.016-.216-.025-.225-.226-.242-.178-.015-.217.003-.26.118-.064.167-.121.19-.597.232l-.382.034-.112-.183c-.107-.175-.13-.184-.492-.2-.469-.02-.537.028-.537.382 0 .289.002.291.404.362.242.043.248.059.095.222-.113.121-.116.121-.318.018-.112-.057-.248-.104-.302-.104-.092 0-.618.487-1.052.975-.109.122-.422.346-.696.497-.386.213-.64.413-1.128.891-.704.689-.957 1.027-.958 1.281a.55.55 0 0 1-.042.231c-.023.033-.344.264-.714.514s-.827.599-1.014.776l-.34.321.039.654c.022.36.031.654.022.654a8.1 8.1 0 0 1-.432-.191l-.414-.191v-.394-.394h-1.336-1.336l-.702.348-.702.348-.323.668c-.178.368-.363.821-.413 1.008l-.09.339.196.424c.218.471.162.44.947.537l.39.048.835-.552.835-.552.049.221c.044.197.024.273-.19.724-.132.277-.228.516-.213.53s.286.076.604.138.595.131.616.155.067.468.103.987.074.952.084.963a22.85 22.85 0 0 0 1.738.293c.079 0 .296-.199.665-.612.619-.691.546-.663 1.334-.513l.501.096.251.35.251.35.585-.034c.674-.039.835-.07.836-.158.002-.184.093-.214.312-.102.283.145.444.324.827.915.2.308.36.498.437.515.067.016.395.034.728.042l.606.014.244.451c.218.404.249.508.295.994.028.299.059.551.069.56s.356.148.77.308l.752.291.998.035.998.035.275.446.275.446.417.128.417.128-.036.206c-.058.325-.278.724-.685 1.242l-.377.479-.132 1.275c-.072.701-.147 1.316-.166 1.367s-.213.231-.432.402l-.397.31-.656.016-.656.016-.206.337-.206.337.13.61c.072.336.131.661.132.724s-.323.55-.72 1.083-.797 1.108-.888 1.278c-.163.303-.179.316-.762.578-.526.237-.901.357-1.429.457-.137.026-.153.053-.153.252 0 .193.021.23.153.277.433.154.448.29.073.686-.155.164-.282.322-.282.352s.083.134.185.233a.69.69 0 0 0 .473.214c.278.033.288.04.288.207 0 .095-.056.395-.125.666l-.126.493.465.427c.41.376.462.446.446.593l-.019.167h-.617c-.716 0-.657.03-1.499-.765-.442-.417-.559-.572-.983-1.302l-.482-.829.06-.899.06-.899-.382-.513-.382-.513.154-.862c.085-.474.141-.875.125-.891s-.125-.062-.242-.102l-.213-.073-.015-1.925-.015-1.925-.542-.385c-.647-.459-.842-.564-1.21-.646l-.278-.062-.042-.294c-.023-.162-.078-.362-.121-.444s-.428-.588-.854-1.122l-.775-.971.072-.31c.04-.17.089-.594.11-.941.025-.413.064-.657.113-.707.042-.042.272-.214.512-.383s.469-.346.508-.394c.058-.07.056-.21-.013-.758-.047-.369-.098-.685-.115-.701s-.401-.063-.855-.104l-.835-.078c-.005-.002-.279-.311-.608-.686l-.664-.756c-.036-.04-.402-.154-.812-.253l-.746-.18.016-.255c.019-.295-.002-.31-.499-.362-.28-.029-.325-.021-.325.059 0 .051-.038.108-.083.125s-.472-.064-.946-.181l-.863-.213-.363-.545c-.199-.3-.363-.571-.363-.603s.062-.18.137-.329l.137-.271-.622-.911-.622-.911-.097-.585-.1-.654c-.002-.047-.102-.07-.309-.07-.356 0-.34-.056-.221.738.082.548.101.596.479 1.222.217.358.395.684.397.724s-.001.145-.006.233c-.008.155-.016.159-.241.129-.128-.017-.295-.078-.372-.136s-.324-.411-.548-.785l-.408-.681v-.883-.883l-.48-.216-.48-.216.037-.574c.024-.371.077-.676.151-.863.212-.537.609-1.286.845-1.593.728-.949.707-.914.708-1.166 0-.159-.022-.234-.064-.22-.036.012-.272.365-.525.785s-.622.967-.82 1.215c-.347.435-.361.466-.399.849-.021.218-.102.573-.179.787-.836 2.326-1.188 3.758-1.446 5.877-.138 1.136-.138 3.592 0 4.817.37 3.284 1.37 6.268 3.041 9.07.971 1.629 1.953 2.882 3.371 4.301 1.836 1.837 3.639 3.137 5.934 4.278 2.599 1.292 5.3 2.026 8.331 2.264.828.065 3.027.018 4.015-.086zm19.322-27.239c-.019-.074-.058-.135-.088-.135-.076 0-.068.205.013.352.061.11.069.112.088.02.012-.056.006-.163-.013-.237zm-1.543-3.957c.096-.019.174-.063.174-.097s-.105-.283-.233-.553c-.193-.405-.253-.488-.348-.474-.106.015-.116.059-.131.587l-.016.571h.19c.104 0 .268-.016.364-.035zm-27.868-.436c.109-.109.137-.194.137-.418 0-.264-.008-.281-.143-.281-.23 0-.844.322-.881.463-.093.346-.067.373.358.373.342 0 .41-.017.529-.137zm-1.326-.858c.253-.347.46-.654.46-.682s-.185-.051-.411-.051h-.411l-.231.251c-.267.29-.34.45-.34.753 0 .18.027.232.153.301.084.046.19.078.236.071s.29-.297.543-.644zm2.733.234l-.017-.259-.362-.101c-.549-.153-.557-.151-.557.17 0 .384.082.45.564.45h.389zm-1.243-.32c.119-.078.14-.134.14-.369v-.277h-.39-.39v.397.397l.25-.028c.137-.015.313-.069.39-.12zm1.051-.335l.159-.13-.243-.145-.243-.145-.136.136-.136.136.132.141c.163.173.262.174.467.006zm-1.524-.666c0-.149-.033-.271-.084-.313-.046-.038-.084-.107-.084-.152 0-.07-.092-.079-.571-.06-.671.027-.982.151-1.1.435s-.041.313 1.1.326l.738.008zm.742.137c.044-.044-.382-.45-.473-.45-.025 0-.046.129-.046.286v.286l.237-.038c.13-.021.257-.058.282-.083zm-3.081-1.386c.314-.153.461-.774.215-.906-.259-.138-.994.07-.994.282 0 .113.179.514.292.655.076.095.254.083.488-.031zm27.416-1.065c.116-.166.211-.335.211-.375s-.257-.367-.571-.727l-.571-.654-.014.472c-.021.707-.013.693-.516.946-.408.205-.445.237-.445.392 0 .238.128.273.973.259l.722-.011zM12.407 8.936c.11-.023.125-.06.125-.303 0-.155-.026-.277-.058-.277-.135 0-.931.183-1.098.253-.184.077-.236.208-.113.284.166.102.751.125 1.144.044zm.039-1.206c.048-.068.087-.218.087-.334v-.21h-.414c-.228 0-.429.023-.446.051s-.132.068-.254.088c-.22.037-.223.04-.223.283v.246h.582c.538 0 .588-.009.668-.124z"/><path d="M34.924 11.794c.001-.406.042-.478.298-.528.216-.042.232-.059.248-.249.017-.199.007-.21-.432-.491-.538-.345-.57-.46-.247-.882.009-.011.167-.052.352-.091l.337-.07.053.202.09.425c.074.44.597 1.156.923 1.265l.227.076-.207.249c-.189.226-.236.252-.521.284-.172.02-.495.038-.717.042l-.404.006z"/><path d="M33.42 11.516c0-.178.053-.32.214-.573.198-.312.235-.341.501-.403.246-.057.315-.053.482.027s.195.119.195.297c0 .193-.027.223-.483.547-.389.276-.525.343-.696.343h-.213zm-11.53 2.379c0-.045-.038-.082-.084-.082-.052 0-.084-.053-.084-.139 0-.132.016-.139.311-.139s.315-.009.374-.167c.057-.15.088-.167.302-.167.131 0 .238.019.238.042-.002.098-.103.189-.255.229-.108.029-.168.085-.18.166-.021.144-.188.26-.442.307-.137.025-.181.013-.181-.049z"/></g><g class="B"><path d="M20.833 13.911c.001-.069.045-.18.097-.247.095-.12.098-.12.223-.017.097.08.119.139.091.247-.03.118-.068.143-.225.143s-.189-.02-.188-.125zm-7.354-2.492l-.167-.354c0-.012.126-.077.279-.143.238-.102.312-.111.501-.06.252.068.244.046.148.417-.067.259-.09.285-.333.375l-.261.097zm-8.772 2.297c0-.032.355-.645.681-1.177.032-.051.063-.094.069-.094a.56.56 0 0 1 .024.153c.01.129.006.163-.027.218s-.621.785-.71.879c-.02.021-.037.031-.037.021zm-.905 1.467v-.305l.328-.398.335-.391c.004.004-.064.15-.152.324l-.297.617-.176.379-.038.079zm7.627-6.259a.59.59 0 0 1-.184-.199c0-.028.718-.222.985-.266l.266-.044.014.061c.015.067-.003.405-.022.405l-.445.029-.613.013zm-.221-1.303c.005-.167.014-.223.036-.237.016-.01.125-.019.242-.019h.212l.012-.06c.007-.033.028-.068.047-.079s.201-.019.404-.019h.368l-.01.168c-.011.177-.026.212-.169.383l-.058.069-.545.006-.545.006zm5.039 6.432c-.013-.013-.021-.148-.021-.351v-.331h.364.364v.214.214l-.162.103c-.138.088-.188.108-.344.137-.126.024-.188.028-.203.014z"/><path d="M16.612 13.048c-.013-.102.004-.346.023-.346.026 0 .379.343.365.355s-.338.098-.367.098c-.005 0-.014-.048-.022-.106z"/><path d="M15.199 13.114c-.424-.026-.588-.08-.588-.194 0-.227.658-.452 1.268-.432.235.008.268.025.268.14 0 .077.033.133.079.133.057 0 .079.061.079.225v.149l-.428-.003-.678-.018zm-.563 1.41c-.13-.06-.147-.101-.12-.279.036-.229.111-.361.377-.663a.94.94 0 0 1 .173-.162c.115-.059.589-.061.589-.002 0 .034-.229.367-.476.692-.264.347-.366.463-.407.463a.56.56 0 0 1-.136-.048zm1.167.418l.047-.208c.024-.104.05-.173.074-.191s.1-.033.176-.04c.137-.013.14-.015.164-.08.013-.037.041-.076.061-.086.027-.014.409-.079.467-.079.004 0 .006.091.006.202v.202l-.163.162-.163.162h-.34-.34zm1.58-.442c-.019-.005-.075-.063-.123-.13l-.088-.12v-.184c0-.143.006-.186.029-.195.016-.006.186.035.379.092l.414.121.064.018v.206.206l-.32-.002-.355-.011z"/></g><path d="M20.874 14.002c-.039-.025-.035-.151.009-.238s.127-.176.161-.176c.048 0 .203.168.203.22 0 .076-.039.172-.08.194a.6.6 0 0 1-.294 0z" class="C"/><path d="M3.822 15.141l-.001-.268.28-.339.286-.321c.005.015-.199.45-.506 1.079l-.058.118z" fill-opacity="0"/><path d="M17.574 13.625c-.165-.135-.161-.12-.067-.222a.4.4 0 0 1 .103-.091 1.05 1.05 0 0 1 .168.092l.148.092-.077.066-.127.104-.051.038zm22.136-2.747c-.027-.017-.06-.086-.073-.152-.024-.121-.023-.122.452-.368l.477-.246.001-.516.001-.516.127.143.851.989c.047.061.028.108-.154.384l-.207.315-.714-.001-.762-.031z" class="B"/><g fill="#fff"><use href="#B"/><path d="M23.655 44.93a.05.211 0 0 1 0 .004l-.05-.004zm7.6-43.75c-.187-.056-1.218-.226-1.874-.31-1.6-.204-3.136-.288-5.219-.288-2.417 0-4.596.151-6.137.423-.804.142-.316-.025.879-.301.822-.19 2.054-.402 2.839-.488C22.99.079 25.89.101 27.234.257c1.03.12 2.228.361 3.426.691l.807.265a.89.89 0 0 1-.213-.034zm-8.451 47.317l-.65-.055a24.51 24.51 0 0 1-5.002-.998c-.587-.189-.616-.216-.132-.123.726.139 2.048.278 3.657.384a124.83 124.83 0 0 0 7.188 0l3.864-.424c.164-.034.306-.055.315-.046.023.023-1.321.433-1.954.596-.94.243-1.843.409-3.013.555-.653.082-1.883.136-2.934.131l-1.339-.019z"/></g><path d="M30.484 1.02C28.522.667 25.518.498 22.772.586l-4.255.325-.544.061C17.931.929 19.505.584 20.5.417 21.723.212 22.002.19 23.677.168c2.672-.034 3.867.07 5.783.503l1.536.424c-.054-.001-.285-.035-.512-.075z" class="C"/><g fill="#fff" stroke="#000" stroke-width=".061"><circle cx="-11.189" cy="22.462" r=".001"/><circle cx="-11.189" cy="22.462" r=".001"/></g><path d="M3.822 15.132c-.002-.247-.001-.249.242-.54l.256-.281c.007.007-.102.25-.242.54l-.254.528z" class="C"/><use href="#B" class="B"/><defs ><path id="B" d="M44.072 14.827c0-.379.013-.492.059-.53s.093.022.295.438c.228.47.233.488.148.499l-.295.043-.207.031z"/></defs></svg>