<svg xmlns="http://www.w3.org/2000/svg" viewBox="0 0 1364 259" width="100%" height="100%" fill="#fff" xmlns:v="https://vecta.io/nano"><path d="M0 174V51h15.24V33.86h16.81V16.88h16.96V0h1266v17.23h17.13v16.81h16.98V51H1364v123h-15.13v17.08h-17.08v17.08h-16.9v17.04H324.9v16.86H308v16.95H206v-17.12h-17.07v-17.05H48.73v-17.05H31.84V190.9h-16.9v-16.89H0zM1297.95 17.35H65.9v16.7H48.82v17.08h-14.5v123.08h14.85v16.9h17.08v17.08h139.9v17.08h17.08v16.36h67.9v-16.72h17.08v-17.07h989.88v-17.07h17.08v-16.9h14.44V50.8h-14.75V33.72h-16.9V17.35zM189.1 154.78v17.07h-16.9v16.75h-51.07v-16.42h-16.9v-17.07H87.26V70.23h16.63V53.16h16.9V36.32h51.07v16.5h17.07v17.07h16.7v84.89h-16.54zM137.87 53.1v17.15h-16.6v84.86h16.97v16.61h16.89v-16.97h16.6V69.89h-16.97V53.1h-16.89zm136.04 50.96V87.33h50.92v16.45h16.85v68.05h-16.44v17.06h-50.96v16.88h16.4v16.96H223.4v-16.61h16.33V104.26h-16.38V87.28h33.4v16.63h17.31v67.75h33.59v-67.61h-33.73zm357.21 84.58v-16.36h16.53V53.2H631.4V36.34h118.33v33.29h-16.65V53.27h-50.72v50.44h33.36V87.36h16.99v50.25h-16.6v-16.33h-33.73v50.65h16.37v16.72h-67.63zm-34.34-84.84v84.94h-33.54v-84.39h-34.03v84.25h-33.85V87.31h84.5v16.49h16.93zm510.34 84.91v-84.34h-34.03v84.37h-33.7V87.33h84.42v16.41h16.86v84.96h-33.54zM988.1 171.78v16.87h-67.88v-16.38h-16.87v-68.06h16.38V87.34h68.06v16.38h16.87v68.06h-16.55zm-17.32-67.43h-33.39v67.38h33.39v-67.38zm-510.01 51.03v16.49h-16.58v16.83h-68.05v-16.5h-16.83v-68.05h16.49V87.32h68.05v16.49h16.83v34.06h-67.31v33.82h33.47v-16.31h33.92zm-67.38-51.2v16.56h33.3v-16.56h-33.3zM1209.13 172h-16.9v-67.9h-16.96V87.2h16.68V70.12h16.9V53.3h16.9v33.58h50.98v16.91h-50.4v67.96h16.48v-16.43h50.95v16.54h-16.55v16.76h-68.08v-16.6zm-374.22-51.06v16.96h-16.65v33.88h16.41v16.96h-67.29v-16.63h16.34v-67.87h-16.4V87.27h50.42v33.81h17.3l-.14-.14z"/><path d="M835.05 121.08V87.33h33.76v16.43h16.85v33.96h-33.43v-16.79h-17.32l.14.14z"/></svg>